
<svg width="51px" height="51px" viewBox="0 0 51 51" version="1.1" xmlns="http://www.w3.org/2000/svg" xmlns:xlink="http://www.w3.org/1999/xlink">

    <g id="Symbols" stroke="none" stroke-width="1" fill="none" fill-rule="evenodd">
        <g id="Header" transform="translate(-43.000000, -37.000000)">
            <g transform="translate(0.000000, 0.308504)" id="Logo-Copy">
                <g transform="translate(43.500000, 36.500000)">
                    <g id="Group-2" transform="translate(31.000000, 14.000000)">
                        <g id="Group" transform="translate(47.000000, 0.000000)">
                       
                        </g>
                        <path d="M0.934999733,21.77 L0.934999733,3.02 C0.934999733,2.3599967 1.11999788,1.8700016 1.48999973,1.55 C1.86000158,1.2299984 2.32499693,1.07 2.88499973,1.07 C3.62500343,1.07 4.19499773,1.1999987 4.59499973,1.46 C4.99500173,1.7200013 5.43499733,2.2799957 5.91499973,3.14 L9.60499973,9.86 L13.2949997,3.14 C13.7750021,2.2799957 14.2199977,1.7200013 14.6299997,1.46 C15.0400018,1.1999987 15.614996,1.07 16.3549997,1.07 C16.9150025,1.07 17.3799979,1.2299984 17.7499997,1.55 C18.1200016,1.8700016 18.3049997,2.3599967 18.3049997,3.02 L18.3049997,21.77 C18.3049997,22.1500019 18.1100017,22.4499989 17.7199997,22.67 C17.3299978,22.8900011 16.8750023,23 16.3549997,23 C15.814997,23 15.3550016,22.8900011 14.9749997,22.67 C14.5949978,22.4499989 14.4049997,22.1500019 14.4049997,21.77 L14.4049997,8.87 L10.8949997,15.11 C10.6149983,15.6300026 10.1750027,15.89 9.57499973,15.89 C8.99499683,15.89 8.56500113,15.6300026 8.28499973,15.11 L4.83499973,8.63 L4.83499973,21.77 C4.83499973,22.1500019 4.64000168,22.4499989 4.24999973,22.67 C3.85999778,22.8900011 3.40500233,23 2.88499973,23 C2.34499703,23 1.88500163,22.8900011 1.50499973,22.67 C1.12499783,22.4499989 0.934999733,22.1500019 0.934999733,21.77 Z M25.7349998,16.31 L25.7349998,2.27 C25.7349998,1.869998 " id="hudalogs" fill="#25ca7f"></path>
                    </g>
                    <g id="dots" opacity="1" fill="#fff">
                        <rect id="Rectangle-Copy-3" x="0" y="0.691495617" width="4" height="4"></rect>
                        <rect id="Rectangle-Copy-4" x="15" y="0.691495617" width="4" height="4"></rect>
                        <rect id="Rectangle-Copy-5" x="31" y="0.691495617" width="4" height="4"></rect>
                        <rect id="Rectangle-Copy-6" x="47" y="0.691495617" width="4" height="4"></rect>
                        <rect id="Rectangle-Copy-3" x="0" y="15.6914956" width="4" height="4"></rect>
                        <rect id="Rectangle-Copy-4" x="15" y="15.6914956" width="4" height="4"></rect>
                        <rect id="Rectangle-Copy-3" x="0" y="31.6914956" width="4" height="4"></rect>
                        <rect id="Rectangle-Copy-4" x="15" y="31.6914956" width="4" height="4"></rect>
                        <rect id="Rectangle-Copy-3" x="0" y="46.6914956" width="4" height="4"></rect>
                        <rect id="Rectangle-Copy-4" x="15" y="46.6914956" width="4" height="4"></rect>
                        <rect id="Rectangle-Copy-5" x="31" y="46.6914956" width="4" height="4"></rect>
                        <rect id="Rectangle-Copy-6" x="47" y="46.6914956" width="4" height="4"></rect>
                    </g>
                </g>
            </g>
        </g>
    </g>
</svg>